<svg width="24" height="24" viewBox="0 0 24 24" fill="none" xmlns="http://www.w3.org/2000/svg">
<path d="M12 2C10.0222 2 8.08879 2.58649 6.4443 3.6853C4.79981 4.78412 3.51809 6.3459 2.76121 8.17317C2.00433 10.0004 1.8063 12.0111 2.19215 13.9509C2.578 15.8907 3.53041 17.6725 4.92894 19.0711C6.32746 20.4696 8.10929 21.422 10.0491 21.8079C11.9889 22.1937 13.9996 21.9957 15.8268 21.2388C17.6541 20.4819 19.2159 19.2002 20.3147 17.5557C21.4135 15.9112 22 13.9778 22 12C22 10.6868 21.7413 9.38642 21.2388 8.17317C20.7363 6.95991 19.9997 5.85752 19.0711 4.92893C18.1425 4.00035 17.0401 3.26375 15.8268 2.7612C14.6136 2.25866 13.3132 2 12 2ZM16.77 9.64L11.77 15.64C11.676 15.7529 11.5582 15.8437 11.4252 15.9059C11.2921 15.9681 11.1469 16.0002 11 16C10.8499 15.9954 10.7027 15.9571 10.5694 15.8879C10.4361 15.8186 10.3201 15.7202 10.23 15.6L7.23 11.6C7.15121 11.4949 7.09388 11.3754 7.06129 11.2482C7.0287 11.121 7.02148 10.9886 7.04005 10.8586C7.05863 10.7286 7.10262 10.6035 7.16953 10.4905C7.23644 10.3775 7.32495 10.2788 7.43 10.2C7.53506 10.1212 7.65461 10.0639 7.78182 10.0313C7.90904 9.99869 8.04142 9.99148 8.17143 10.0101C8.30143 10.0286 8.4265 10.0726 8.5395 10.1395C8.6525 10.2064 8.75121 10.2949 8.83 10.4L11.07 13.4L15.26 8.4C15.4297 8.19578 15.6737 8.06736 15.9381 8.04298C16.2025 8.0186 16.4658 8.10026 16.67 8.27C16.8742 8.43974 17.0026 8.68365 17.027 8.94808C17.0514 9.2125 16.9697 9.47578 16.8 9.68L16.77 9.64Z" fill="#007D69"/>
</svg>
